<svg xmlns="http://www.w3.org/2000/svg" width="100%" height="100%" viewBox="0 0 108 30" fill="none" preserveAspectRatio="xMidYMid meet" aria-hidden="true" role="img">
<g clip-path="url(#clip0_9_2)">
<path d="M10.8173 23.2216C8.66597 23.2216 6.77218 22.7405 5.13595 21.7784C3.49972 20.7872 2.22709 19.4169 1.31808 17.6676C0.439359 15.9184 0 13.8921 0 11.5889C0 9.34402 0.439359 7.36152 1.31808 5.6414C2.19679 3.89213 3.45427 2.53644 5.0905 1.57434C6.72673 0.612245 8.62052 0.131195 10.7719 0.131195C11.9839 0.131195 13.0899 0.276968 14.0898 0.568513C15.12 0.860057 15.9987 1.25364 16.7259 1.74927C17.4834 2.21574 18.1046 2.74053 18.5894 3.32362V1.99777C18.5894 1.49003 18.5894 1.23616 18.705 1.0481C18.7762 0.9323 18.8766 0.835679 18.997 0.767198C19.1924 0.655975 19.4563 0.655975 19.984 0.655975H24.2852C24.8129 0.655975 25.0768 0.655975 25.2722 0.767198C25.3926 0.835679 25.493 0.9323 25.5642 1.0481C25.6798 1.23616 25.6798 1.49003 25.6798 1.99777V21.2238C25.6798 21.7315 25.6798 21.9854 25.5642 22.1735C25.493 22.2893 25.3926 22.3859 25.2722 22.4544C25.0768 22.5656 24.8129 22.5656 24.2852 22.5656H19.984C19.4563 22.5656 19.1924 22.5656 18.997 22.4544C18.8766 22.3859 18.7762 22.2893 18.705 22.1735C18.5894 21.9854 18.5894 21.7315 18.5894 21.2238V19.723C18.2258 20.2187 17.6804 20.7434 16.9532 21.2974C16.2563 21.8222 15.3776 22.2741 14.317 22.6531C13.2868 23.0321 12.1202 23.2216 10.8173 23.2216ZM13.0444 17.93C14.1655 17.93 15.1503 17.6822 15.9987 17.1866C16.8774 16.6618 17.5592 15.9184 18.044 14.9563C18.5288 13.9942 18.7712 12.8717 18.7712 11.5889C18.7712 10.3061 18.5288 9.19825 18.044 8.26531C17.5592 7.30321 16.8774 6.55977 15.9987 6.03499C15.1503 5.5102 14.1655 5.24781 13.0444 5.24781C11.893 5.24781 10.8931 5.5102 10.0447 6.03499C9.19623 6.53061 8.52962 7.25947 8.04481 8.22157C7.5903 9.15452 7.36305 10.277 7.36305 11.5889C7.36305 12.8717 7.5903 13.9942 8.04481 14.9563C8.52962 15.9184 9.19623 16.6618 10.0447 17.1866C10.9234 17.6822 11.9233 17.93 13.0444 17.93Z" fill="#11A850"></path>
<path d="M38.1373 21.1662L29.1102 2.56547C28.777 1.87884 28.6104 1.53553 28.6821 1.26036C28.7257 1.09302 28.8245 0.943765 28.9636 0.834934C29.1924 0.655975 29.5862 0.655975 30.3738 0.655975H35.167C35.5282 0.655975 35.7089 0.655975 35.8633 0.718481C35.9592 0.757295 36.0466 0.813102 36.1211 0.882995C36.241 0.995553 36.3112 1.15568 36.4517 1.47593L41.637 13.2945L46.4701 1.5054C46.6059 1.17415 46.6739 1.00853 46.7944 0.891799C46.8692 0.819345 46.9577 0.761367 47.0552 0.721004C47.2123 0.655975 47.3973 0.655975 47.7674 0.655975H52.0884C52.8454 0.655975 53.2239 0.655975 53.4501 0.82788C53.5878 0.932559 53.6875 1.07656 53.7349 1.23919C53.8127 1.50627 53.6669 1.84234 53.3754 2.51449L41.813 29.1749C41.6733 29.4971 41.6034 29.6582 41.4834 29.7715C41.4089 29.8418 41.3213 29.898 41.2251 29.9371C41.0702 30 40.8888 30 40.526 30H36.2662C35.498 30 35.1139 30 34.8867 29.8255C34.7484 29.7192 34.6491 29.5733 34.6031 29.4089C34.5275 29.1388 34.6809 28.8 34.9877 28.1223L38.1373 21.1662Z" fill="#11A850"></path>
<path d="M65.9316 23.2216C63.7803 23.2216 61.8865 22.7405 60.2502 21.7784C58.614 20.7872 57.3414 19.4169 56.4324 17.6676C55.5537 15.9184 55.1143 13.8921 55.1143 11.5889C55.1143 9.34402 55.5537 7.36152 56.4324 5.6414C57.3111 3.89213 58.5686 2.53644 60.2048 1.57434C61.841 0.612245 63.7348 0.131195 65.8862 0.131195C67.0982 0.131195 68.2042 0.276968 69.2041 0.568513C70.2343 0.860057 71.113 1.25364 71.8402 1.74927C72.5977 2.21574 73.2189 2.74053 73.7037 3.32362V1.99777C73.7037 1.49003 73.7037 1.23616 73.8193 1.0481C73.8905 0.9323 73.9909 0.835679 74.1112 0.767198C74.3067 0.655975 74.5706 0.655975 75.0983 0.655975H79.3995C79.9272 0.655975 80.1911 0.655975 80.3865 0.767198C80.5069 0.835679 80.6073 0.9323 80.6785 1.0481C80.7941 1.23616 80.7941 1.49003 80.7941 1.99777V21.2238C80.7941 21.7315 80.7941 21.9854 80.6785 22.1735C80.6073 22.2893 80.5069 22.3859 80.3865 22.4544C80.1911 22.5656 79.9272 22.5656 79.3995 22.5656H75.0983C74.5706 22.5656 74.3067 22.5656 74.1112 22.4544C73.9909 22.3859 73.8905 22.2893 73.8193 22.1735C73.7037 21.9854 73.7037 21.7315 73.7037 21.2238V19.723C73.3401 20.2187 72.7947 20.7434 72.0675 21.2974C71.3706 21.8222 70.4919 22.2741 69.4313 22.6531C68.4011 23.0321 67.2345 23.2216 65.9316 23.2216ZM68.1587 17.93C69.2798 17.93 70.2646 17.6822 71.113 17.1866C71.9917 16.6618 72.6735 15.9184 73.1583 14.9563C73.6431 13.9942 73.8855 12.8717 73.8855 11.5889C73.8855 10.3061 73.6431 9.19825 73.1583 8.26531C72.6735 7.30321 71.9917 6.55977 71.113 6.03499C70.2646 5.5102 69.2798 5.24781 68.1587 5.24781C67.0073 5.24781 66.0074 5.5102 65.1589 6.03499C64.3105 6.53061 63.6439 7.25947 63.1591 8.22157C62.7046 9.15452 62.4773 10.277 62.4773 11.5889C62.4773 12.8717 62.7046 13.9942 63.1591 14.9563C63.6439 15.9184 64.3105 16.6618 65.1589 17.1866C66.0377 17.6822 67.0376 17.93 68.1587 17.93Z" fill="#11A850"></path>
<path d="M84.9109 1.99777C84.9109 1.49003 84.9109 1.23616 85.0265 1.0481C85.0977 0.932301 85.1981 0.83568 85.3185 0.767199C85.5139 0.655976 85.7778 0.655976 86.3055 0.655976H90.6067C91.1344 0.655976 91.3983 0.655976 91.5937 0.767199C91.7141 0.83568 91.8145 0.932301 91.8857 1.0481C92.0013 1.23616 92.0013 1.49003 92.0013 1.99777V3.41108C92.6073 2.50729 93.5315 1.72012 94.7738 1.04956C96.0161 0.349855 97.5008 0 99.228 0C100.925 0 102.425 0.3207 103.728 0.9621C105.061 1.6035 106.106 2.58018 106.864 3.89213C107.621 5.20408 108 6.82216 108 8.74636V21.2238C108 21.7315 108 21.9854 107.884 22.1735C107.813 22.2893 107.713 22.3859 107.592 22.4544C107.397 22.5656 107.133 22.5656 106.605 22.5656H102.077C101.549 22.5656 101.285 22.5656 101.09 22.4544C100.97 22.3859 100.869 22.2893 100.798 22.1735C100.682 21.9854 100.682 21.7315 100.682 21.2238V9.75219C100.682 8.73178 100.516 7.91545 100.182 7.30321C99.8794 6.66181 99.4249 6.19533 98.8189 5.90379C98.2432 5.61224 97.5463 5.46647 96.7282 5.46647C95.698 5.46647 94.8495 5.69971 94.1829 6.16618C93.5163 6.63265 93.0315 7.28863 92.7285 8.13411C92.4255 8.95044 92.274 9.92711 92.274 11.0641V21.2238C92.274 21.7315 92.274 21.9854 92.1584 22.1735C92.0872 22.2893 91.9868 22.3859 91.8664 22.4544C91.671 22.5656 91.4071 22.5656 90.8794 22.5656H86.3055C85.7778 22.5656 85.5139 22.5656 85.3185 22.4544C85.1981 22.3859 85.0977 22.2893 85.0265 22.1735C84.9109 21.9854 84.9109 21.7315 84.9109 21.2238V1.99777Z" fill="#11A850"></path>
</g>
<defs>
<clipPath id="clip0_9_2">
<rect width="108" height="30" fill="white"></rect>
</clipPath>
</defs>
</svg>